<mxfile host="app.diagrams.net" modified="2023-02-23T01:30:54.070Z" agent="5.0 (Windows NT 10.0; Win64; x64) AppleWebKit/537.36 (KHTML, like Gecko) Chrome/110.0.0.0 Safari/537.36" etag="LKP-33dwLIe8WpsfL70G" version="20.8.23" type="github">
  <diagram id="ewztFGT2zGTS9t8cP0Wc" name="Trang-1">
    <mxGraphModel dx="4609" dy="2551" grid="1" gridSize="10" guides="1" tooltips="1" connect="1" arrows="1" fold="1" page="1" pageScale="1" pageWidth="827" pageHeight="1169" math="0" shadow="0">
      <root>
        <mxCell id="0" />
        <mxCell id="1" parent="0" />
        <mxCell id="fZ5gz3fBRrznooZwM4yi-4" value="" style="edgeStyle=orthogonalEdgeStyle;rounded=0;orthogonalLoop=1;jettySize=auto;html=1;" edge="1" parent="1" source="eXNG1eiRY6DkNwFddk69-2" target="eXNG1eiRY6DkNwFddk69-6">
          <mxGeometry relative="1" as="geometry" />
        </mxCell>
        <mxCell id="fZ5gz3fBRrznooZwM4yi-5" value="" style="edgeStyle=orthogonalEdgeStyle;rounded=0;orthogonalLoop=1;jettySize=auto;html=1;" edge="1" parent="1" source="eXNG1eiRY6DkNwFddk69-2" target="eXNG1eiRY6DkNwFddk69-8">
          <mxGeometry relative="1" as="geometry" />
        </mxCell>
        <mxCell id="eXNG1eiRY6DkNwFddk69-2" value="Is PDF or Images?" style="rhombus;whiteSpace=wrap;html=1;" parent="1" vertex="1">
          <mxGeometry x="1235" y="11" width="150" height="45" as="geometry" />
        </mxCell>
        <mxCell id="eXNG1eiRY6DkNwFddk69-6" value="Error" style="shape=parallelogram;perimeter=parallelogramPerimeter;whiteSpace=wrap;html=1;fixedSize=1;" parent="1" vertex="1">
          <mxGeometry x="1080" y="18.5" width="120" height="30" as="geometry" />
        </mxCell>
        <mxCell id="eXNG1eiRY6DkNwFddk69-7" value="No" style="text;html=1;strokeColor=none;fillColor=none;align=center;verticalAlign=middle;whiteSpace=wrap;rounded=0;" parent="1" vertex="1">
          <mxGeometry x="1190" y="11" width="60" height="30" as="geometry" />
        </mxCell>
        <mxCell id="fZ5gz3fBRrznooZwM4yi-6" value="" style="edgeStyle=orthogonalEdgeStyle;rounded=0;orthogonalLoop=1;jettySize=auto;html=1;" edge="1" parent="1" source="eXNG1eiRY6DkNwFddk69-8" target="eXNG1eiRY6DkNwFddk69-12">
          <mxGeometry relative="1" as="geometry" />
        </mxCell>
        <mxCell id="fZ5gz3fBRrznooZwM4yi-9" value="" style="edgeStyle=orthogonalEdgeStyle;rounded=0;orthogonalLoop=1;jettySize=auto;html=1;" edge="1" parent="1" source="eXNG1eiRY6DkNwFddk69-8" target="fZ5gz3fBRrznooZwM4yi-8">
          <mxGeometry relative="1" as="geometry" />
        </mxCell>
        <mxCell id="eXNG1eiRY6DkNwFddk69-8" value="Is PDF?" style="rhombus;whiteSpace=wrap;html=1;" parent="1" vertex="1">
          <mxGeometry x="1235" y="93.5" width="150" height="40" as="geometry" />
        </mxCell>
        <mxCell id="eXNG1eiRY6DkNwFddk69-12" value="PDF2Image Converter" style="whiteSpace=wrap;html=1;rounded=0;" parent="1" vertex="1">
          <mxGeometry x="1080" y="96" width="120" height="35" as="geometry" />
        </mxCell>
        <mxCell id="eXNG1eiRY6DkNwFddk69-62" value="" style="edgeStyle=orthogonalEdgeStyle;rounded=0;orthogonalLoop=1;jettySize=auto;html=1;entryX=0.5;entryY=0;entryDx=0;entryDy=0;" parent="1" source="eXNG1eiRY6DkNwFddk69-14" target="eXNG1eiRY6DkNwFddk69-19" edge="1">
          <mxGeometry relative="1" as="geometry">
            <mxPoint x="730" y="510" as="targetPoint" />
          </mxGeometry>
        </mxCell>
        <mxCell id="eXNG1eiRY6DkNwFddk69-14" value="Image Input" style="shape=parallelogram;perimeter=parallelogramPerimeter;whiteSpace=wrap;html=1;fixedSize=1;rounded=0;" parent="1" vertex="1">
          <mxGeometry x="520" y="430" width="120" height="30" as="geometry" />
        </mxCell>
        <mxCell id="eXNG1eiRY6DkNwFddk69-17" value="Yes" style="text;html=1;strokeColor=none;fillColor=none;align=center;verticalAlign=middle;whiteSpace=wrap;rounded=0;" parent="1" vertex="1">
          <mxGeometry x="1294" y="59" width="60" height="30" as="geometry" />
        </mxCell>
        <mxCell id="eXNG1eiRY6DkNwFddk69-24" value="" style="edgeStyle=orthogonalEdgeStyle;rounded=0;orthogonalLoop=1;jettySize=auto;html=1;" parent="1" source="eXNG1eiRY6DkNwFddk69-19" target="eXNG1eiRY6DkNwFddk69-23" edge="1">
          <mxGeometry relative="1" as="geometry" />
        </mxCell>
        <mxCell id="eXNG1eiRY6DkNwFddk69-19" value="BasicOCR Block" style="whiteSpace=wrap;html=1;rounded=0;" parent="1" vertex="1">
          <mxGeometry x="520" y="490" width="120" height="30" as="geometry" />
        </mxCell>
        <mxCell id="eXNG1eiRY6DkNwFddk69-65" value="" style="edgeStyle=orthogonalEdgeStyle;rounded=0;orthogonalLoop=1;jettySize=auto;html=1;" parent="1" source="eXNG1eiRY6DkNwFddk69-23" target="eXNG1eiRY6DkNwFddk69-61" edge="1">
          <mxGeometry relative="1" as="geometry" />
        </mxCell>
        <mxCell id="eXNG1eiRY6DkNwFddk69-23" value="Words DC" style="shape=parallelogram;perimeter=parallelogramPerimeter;whiteSpace=wrap;html=1;fixedSize=1;rounded=0;" parent="1" vertex="1">
          <mxGeometry x="520" y="550" width="120" height="30" as="geometry" />
        </mxCell>
        <mxCell id="eXNG1eiRY6DkNwFddk69-29" value="" style="edgeStyle=orthogonalEdgeStyle;rounded=0;orthogonalLoop=1;jettySize=auto;html=1;entryX=1;entryY=0.5;entryDx=0;entryDy=0;" parent="1" source="eXNG1eiRY6DkNwFddk69-26" target="eXNG1eiRY6DkNwFddk69-30" edge="1">
          <mxGeometry relative="1" as="geometry">
            <mxPoint x="2055" y="1600.5" as="targetPoint" />
          </mxGeometry>
        </mxCell>
        <mxCell id="eXNG1eiRY6DkNwFddk69-26" value="Tokenizer" style="whiteSpace=wrap;html=1;rounded=0;" parent="1" vertex="1">
          <mxGeometry x="2155" y="1460.5" width="120" height="30" as="geometry" />
        </mxCell>
        <mxCell id="eXNG1eiRY6DkNwFddk69-39" value="" style="edgeStyle=orthogonalEdgeStyle;rounded=0;orthogonalLoop=1;jettySize=auto;html=1;entryX=1;entryY=0.5;entryDx=0;entryDy=0;" parent="1" source="eXNG1eiRY6DkNwFddk69-30" target="eXNG1eiRY6DkNwFddk69-40" edge="1">
          <mxGeometry relative="1" as="geometry">
            <mxPoint x="1910" y="1475.3" as="targetPoint" />
          </mxGeometry>
        </mxCell>
        <mxCell id="eXNG1eiRY6DkNwFddk69-30" value="Image tokens" style="shape=parallelogram;perimeter=parallelogramPerimeter;whiteSpace=wrap;html=1;fixedSize=1;rounded=0;" parent="1" vertex="1">
          <mxGeometry x="1990" y="1461.5" width="120" height="27.5" as="geometry" />
        </mxCell>
        <mxCell id="eXNG1eiRY6DkNwFddk69-33" value="Text tokens" style="shape=parallelogram;perimeter=parallelogramPerimeter;whiteSpace=wrap;html=1;fixedSize=1;rounded=0;" parent="1" vertex="1">
          <mxGeometry x="1984" y="1510.5" width="120" height="27.5" as="geometry" />
        </mxCell>
        <mxCell id="eXNG1eiRY6DkNwFddk69-34" value="Location tokens" style="shape=parallelogram;perimeter=parallelogramPerimeter;whiteSpace=wrap;html=1;fixedSize=1;rounded=0;" parent="1" vertex="1">
          <mxGeometry x="1984" y="1560.5" width="120" height="27.5" as="geometry" />
        </mxCell>
        <mxCell id="eXNG1eiRY6DkNwFddk69-36" value="" style="edgeStyle=orthogonalEdgeStyle;rounded=0;orthogonalLoop=1;jettySize=auto;html=1;entryX=1;entryY=0.5;entryDx=0;entryDy=0;exitX=0;exitY=0.5;exitDx=0;exitDy=0;" parent="1" source="eXNG1eiRY6DkNwFddk69-26" target="eXNG1eiRY6DkNwFddk69-33" edge="1">
          <mxGeometry relative="1" as="geometry">
            <mxPoint x="2165" y="1485.5" as="sourcePoint" />
            <mxPoint x="2110" y="1485.25" as="targetPoint" />
            <Array as="points">
              <mxPoint x="2130" y="1475.5" />
              <mxPoint x="2130" y="1524.5" />
            </Array>
          </mxGeometry>
        </mxCell>
        <mxCell id="eXNG1eiRY6DkNwFddk69-37" value="" style="edgeStyle=orthogonalEdgeStyle;rounded=0;orthogonalLoop=1;jettySize=auto;html=1;entryX=1;entryY=0.5;entryDx=0;entryDy=0;exitX=0;exitY=0.5;exitDx=0;exitDy=0;" parent="1" source="eXNG1eiRY6DkNwFddk69-26" target="eXNG1eiRY6DkNwFddk69-34" edge="1">
          <mxGeometry relative="1" as="geometry">
            <mxPoint x="2175" y="1495.5" as="sourcePoint" />
            <mxPoint x="2120" y="1495.25" as="targetPoint" />
            <Array as="points">
              <mxPoint x="2130" y="1475.5" />
              <mxPoint x="2130" y="1574.5" />
            </Array>
          </mxGeometry>
        </mxCell>
        <mxCell id="eXNG1eiRY6DkNwFddk69-40" value="Embedding Module" style="whiteSpace=wrap;html=1;rounded=0;" parent="1" vertex="1">
          <mxGeometry x="1820" y="1460.5" width="120" height="30" as="geometry" />
        </mxCell>
        <mxCell id="eXNG1eiRY6DkNwFddk69-41" value="" style="edgeStyle=orthogonalEdgeStyle;rounded=0;orthogonalLoop=1;jettySize=auto;html=1;exitX=0;exitY=0.5;exitDx=0;exitDy=0;entryX=1;entryY=0.5;entryDx=0;entryDy=0;" parent="1" source="eXNG1eiRY6DkNwFddk69-33" target="eXNG1eiRY6DkNwFddk69-40" edge="1">
          <mxGeometry relative="1" as="geometry">
            <mxPoint x="2009.9636363636364" y="1485.3" as="sourcePoint" />
            <mxPoint x="1940" y="1480.5" as="targetPoint" />
          </mxGeometry>
        </mxCell>
        <mxCell id="eXNG1eiRY6DkNwFddk69-42" value="" style="edgeStyle=orthogonalEdgeStyle;rounded=0;orthogonalLoop=1;jettySize=auto;html=1;exitX=0;exitY=0.5;exitDx=0;exitDy=0;entryX=1;entryY=0.5;entryDx=0;entryDy=0;" parent="1" source="eXNG1eiRY6DkNwFddk69-34" target="eXNG1eiRY6DkNwFddk69-40" edge="1">
          <mxGeometry relative="1" as="geometry">
            <mxPoint x="2004" y="1534.25" as="sourcePoint" />
            <mxPoint x="1950" y="1485.5" as="targetPoint" />
          </mxGeometry>
        </mxCell>
        <mxCell id="eXNG1eiRY6DkNwFddk69-47" value="" style="edgeStyle=orthogonalEdgeStyle;rounded=0;orthogonalLoop=1;jettySize=auto;html=1;" parent="1" source="eXNG1eiRY6DkNwFddk69-43" target="eXNG1eiRY6DkNwFddk69-46" edge="1">
          <mxGeometry relative="1" as="geometry" />
        </mxCell>
        <mxCell id="eXNG1eiRY6DkNwFddk69-43" value="Embedding &lt;br&gt;Vector" style="shape=parallelogram;perimeter=parallelogramPerimeter;whiteSpace=wrap;html=1;fixedSize=1;rounded=0;" parent="1" vertex="1">
          <mxGeometry x="1680" y="1461.5" width="120" height="30" as="geometry" />
        </mxCell>
        <mxCell id="eXNG1eiRY6DkNwFddk69-45" value="" style="endArrow=classic;html=1;rounded=0;exitX=0;exitY=0.5;exitDx=0;exitDy=0;entryX=1;entryY=0.5;entryDx=0;entryDy=0;" parent="1" source="eXNG1eiRY6DkNwFddk69-40" target="eXNG1eiRY6DkNwFddk69-43" edge="1">
          <mxGeometry width="50" height="50" relative="1" as="geometry">
            <mxPoint x="2020" y="1460.5" as="sourcePoint" />
            <mxPoint x="2070" y="1410.5" as="targetPoint" />
          </mxGeometry>
        </mxCell>
        <mxCell id="eXNG1eiRY6DkNwFddk69-49" value="" style="edgeStyle=orthogonalEdgeStyle;rounded=0;orthogonalLoop=1;jettySize=auto;html=1;" parent="1" source="eXNG1eiRY6DkNwFddk69-46" target="eXNG1eiRY6DkNwFddk69-48" edge="1">
          <mxGeometry relative="1" as="geometry" />
        </mxCell>
        <mxCell id="eXNG1eiRY6DkNwFddk69-46" value="Encoder Module" style="whiteSpace=wrap;html=1;rounded=0;" parent="1" vertex="1">
          <mxGeometry x="1530" y="1461.5" width="120" height="30" as="geometry" />
        </mxCell>
        <mxCell id="eXNG1eiRY6DkNwFddk69-51" value="" style="edgeStyle=orthogonalEdgeStyle;rounded=0;orthogonalLoop=1;jettySize=auto;html=1;" parent="1" source="eXNG1eiRY6DkNwFddk69-48" target="eXNG1eiRY6DkNwFddk69-50" edge="1">
          <mxGeometry relative="1" as="geometry" />
        </mxCell>
        <mxCell id="eXNG1eiRY6DkNwFddk69-48" value="Embedding &lt;br&gt;Vector" style="shape=parallelogram;perimeter=parallelogramPerimeter;whiteSpace=wrap;html=1;fixedSize=1;rounded=0;" parent="1" vertex="1">
          <mxGeometry x="1380" y="1461.5" width="120" height="30" as="geometry" />
        </mxCell>
        <mxCell id="eXNG1eiRY6DkNwFddk69-50" value="Classifier" style="whiteSpace=wrap;html=1;rounded=0;" parent="1" vertex="1">
          <mxGeometry x="1230" y="1461.5" width="120" height="30" as="geometry" />
        </mxCell>
        <mxCell id="eXNG1eiRY6DkNwFddk69-52" value="Keys" style="shape=parallelogram;perimeter=parallelogramPerimeter;whiteSpace=wrap;html=1;fixedSize=1;rounded=0;" parent="1" vertex="1">
          <mxGeometry x="1080" y="1461.5" width="120" height="30" as="geometry" />
        </mxCell>
        <mxCell id="eXNG1eiRY6DkNwFddk69-53" value="Values" style="shape=parallelogram;perimeter=parallelogramPerimeter;whiteSpace=wrap;html=1;fixedSize=1;rounded=0;" parent="1" vertex="1">
          <mxGeometry x="1080" y="1508" width="120" height="30" as="geometry" />
        </mxCell>
        <mxCell id="eXNG1eiRY6DkNwFddk69-54" value="Titles" style="shape=parallelogram;perimeter=parallelogramPerimeter;whiteSpace=wrap;html=1;fixedSize=1;rounded=0;" parent="1" vertex="1">
          <mxGeometry x="1080" y="1560.5" width="120" height="30" as="geometry" />
        </mxCell>
        <mxCell id="eXNG1eiRY6DkNwFddk69-55" value="Others" style="shape=parallelogram;perimeter=parallelogramPerimeter;whiteSpace=wrap;html=1;fixedSize=1;rounded=0;" parent="1" vertex="1">
          <mxGeometry x="1080" y="1610.5" width="120" height="30" as="geometry" />
        </mxCell>
        <mxCell id="eXNG1eiRY6DkNwFddk69-56" value="" style="edgeStyle=orthogonalEdgeStyle;rounded=0;orthogonalLoop=1;jettySize=auto;html=1;exitX=0;exitY=0.5;exitDx=0;exitDy=0;entryX=1;entryY=0.5;entryDx=0;entryDy=0;" parent="1" source="eXNG1eiRY6DkNwFddk69-50" target="eXNG1eiRY6DkNwFddk69-52" edge="1">
          <mxGeometry relative="1" as="geometry">
            <mxPoint x="1399.9607843137255" y="1486.5588235294117" as="sourcePoint" />
            <mxPoint x="1360" y="1486.5588235294117" as="targetPoint" />
          </mxGeometry>
        </mxCell>
        <mxCell id="eXNG1eiRY6DkNwFddk69-58" value="" style="edgeStyle=orthogonalEdgeStyle;rounded=0;orthogonalLoop=1;jettySize=auto;html=1;entryX=1;entryY=0.5;entryDx=0;entryDy=0;exitX=0;exitY=0.5;exitDx=0;exitDy=0;" parent="1" source="eXNG1eiRY6DkNwFddk69-50" target="eXNG1eiRY6DkNwFddk69-53" edge="1">
          <mxGeometry relative="1" as="geometry">
            <mxPoint x="1270" y="1555.5" as="sourcePoint" />
            <mxPoint x="1200" y="1486.5" as="targetPoint" />
            <Array as="points">
              <mxPoint x="1210" y="1476.5" />
              <mxPoint x="1210" y="1523.5" />
            </Array>
          </mxGeometry>
        </mxCell>
        <mxCell id="eXNG1eiRY6DkNwFddk69-59" value="" style="edgeStyle=orthogonalEdgeStyle;rounded=0;orthogonalLoop=1;jettySize=auto;html=1;exitX=0;exitY=0.5;exitDx=0;exitDy=0;entryX=1;entryY=0.5;entryDx=0;entryDy=0;" parent="1" source="eXNG1eiRY6DkNwFddk69-50" target="eXNG1eiRY6DkNwFddk69-54" edge="1">
          <mxGeometry relative="1" as="geometry">
            <mxPoint x="1250" y="1496.5" as="sourcePoint" />
            <mxPoint x="1210" y="1496.5" as="targetPoint" />
            <Array as="points">
              <mxPoint x="1210" y="1476.5" />
              <mxPoint x="1210" y="1575.5" />
            </Array>
          </mxGeometry>
        </mxCell>
        <mxCell id="eXNG1eiRY6DkNwFddk69-60" value="" style="edgeStyle=orthogonalEdgeStyle;rounded=0;orthogonalLoop=1;jettySize=auto;html=1;exitX=0;exitY=0.5;exitDx=0;exitDy=0;entryX=1;entryY=0.5;entryDx=0;entryDy=0;" parent="1" source="eXNG1eiRY6DkNwFddk69-50" target="eXNG1eiRY6DkNwFddk69-55" edge="1">
          <mxGeometry relative="1" as="geometry">
            <mxPoint x="1260" y="1506.5" as="sourcePoint" />
            <mxPoint x="1220" y="1506.5" as="targetPoint" />
            <Array as="points">
              <mxPoint x="1210" y="1476.5" />
              <mxPoint x="1210" y="1625.5" />
            </Array>
          </mxGeometry>
        </mxCell>
        <mxCell id="fZ5gz3fBRrznooZwM4yi-33" value="" style="edgeStyle=orthogonalEdgeStyle;rounded=0;orthogonalLoop=1;jettySize=auto;html=1;fontSize=22;" edge="1" parent="1" source="eXNG1eiRY6DkNwFddk69-61" target="fZ5gz3fBRrznooZwM4yi-32">
          <mxGeometry relative="1" as="geometry" />
        </mxCell>
        <mxCell id="eXNG1eiRY6DkNwFddk69-61" value="Word Merger Block" style="whiteSpace=wrap;html=1;rounded=0;" parent="1" vertex="1">
          <mxGeometry x="520" y="610" width="120" height="30" as="geometry" />
        </mxCell>
        <mxCell id="fZ5gz3fBRrznooZwM4yi-2" value="" style="edgeStyle=orthogonalEdgeStyle;rounded=0;orthogonalLoop=1;jettySize=auto;html=1;" edge="1" parent="1" source="fZ5gz3fBRrznooZwM4yi-1" target="eXNG1eiRY6DkNwFddk69-2">
          <mxGeometry relative="1" as="geometry" />
        </mxCell>
        <mxCell id="fZ5gz3fBRrznooZwM4yi-1" value="Input file" style="shape=parallelogram;perimeter=parallelogramPerimeter;whiteSpace=wrap;html=1;fixedSize=1;" vertex="1" parent="1">
          <mxGeometry x="1415" y="18.5" width="120" height="30" as="geometry" />
        </mxCell>
        <mxCell id="fZ5gz3fBRrznooZwM4yi-7" value="No" style="text;html=1;strokeColor=none;fillColor=none;align=center;verticalAlign=middle;whiteSpace=wrap;rounded=0;" vertex="1" parent="1">
          <mxGeometry x="1293" y="138.5" width="60" height="30" as="geometry" />
        </mxCell>
        <mxCell id="fZ5gz3fBRrznooZwM4yi-8" value="Image Input" style="shape=parallelogram;perimeter=parallelogramPerimeter;whiteSpace=wrap;html=1;fixedSize=1;rounded=0;" vertex="1" parent="1">
          <mxGeometry x="1250" y="176" width="120" height="30" as="geometry" />
        </mxCell>
        <mxCell id="fZ5gz3fBRrznooZwM4yi-10" value="Yes" style="text;html=1;strokeColor=none;fillColor=none;align=center;verticalAlign=middle;whiteSpace=wrap;rounded=0;" vertex="1" parent="1">
          <mxGeometry x="1190" y="89" width="60" height="30" as="geometry" />
        </mxCell>
        <mxCell id="fZ5gz3fBRrznooZwM4yi-13" value="" style="edgeStyle=orthogonalEdgeStyle;rounded=0;orthogonalLoop=1;jettySize=auto;html=1;" edge="1" parent="1" source="fZ5gz3fBRrznooZwM4yi-11" target="fZ5gz3fBRrznooZwM4yi-12">
          <mxGeometry relative="1" as="geometry" />
        </mxCell>
        <mxCell id="fZ5gz3fBRrznooZwM4yi-11" value="Image Input" style="shape=parallelogram;perimeter=parallelogramPerimeter;whiteSpace=wrap;html=1;fixedSize=1;" vertex="1" parent="1">
          <mxGeometry x="2195" y="332.5" width="120" height="30" as="geometry" />
        </mxCell>
        <mxCell id="fZ5gz3fBRrznooZwM4yi-15" value="" style="edgeStyle=orthogonalEdgeStyle;rounded=0;orthogonalLoop=1;jettySize=auto;html=1;" edge="1" parent="1" source="fZ5gz3fBRrznooZwM4yi-12" target="fZ5gz3fBRrznooZwM4yi-14">
          <mxGeometry relative="1" as="geometry" />
        </mxCell>
        <mxCell id="fZ5gz3fBRrznooZwM4yi-12" value="Text Detection" style="whiteSpace=wrap;html=1;rounded=0;" vertex="1" parent="1">
          <mxGeometry x="2030" y="330" width="120" height="35" as="geometry" />
        </mxCell>
        <mxCell id="fZ5gz3fBRrznooZwM4yi-17" value="" style="edgeStyle=orthogonalEdgeStyle;rounded=0;orthogonalLoop=1;jettySize=auto;html=1;" edge="1" parent="1" source="fZ5gz3fBRrznooZwM4yi-14" target="fZ5gz3fBRrznooZwM4yi-16">
          <mxGeometry relative="1" as="geometry" />
        </mxCell>
        <mxCell id="fZ5gz3fBRrznooZwM4yi-14" value="Bounding Boxes" style="shape=parallelogram;perimeter=parallelogramPerimeter;whiteSpace=wrap;html=1;fixedSize=1;" vertex="1" parent="1">
          <mxGeometry x="1870" y="332" width="120" height="30" as="geometry" />
        </mxCell>
        <mxCell id="fZ5gz3fBRrznooZwM4yi-20" value="" style="edgeStyle=orthogonalEdgeStyle;rounded=0;orthogonalLoop=1;jettySize=auto;html=1;" edge="1" parent="1" source="fZ5gz3fBRrznooZwM4yi-16" target="fZ5gz3fBRrznooZwM4yi-19">
          <mxGeometry relative="1" as="geometry" />
        </mxCell>
        <mxCell id="fZ5gz3fBRrznooZwM4yi-16" value="Crop" style="whiteSpace=wrap;html=1;rounded=0;" vertex="1" parent="1">
          <mxGeometry x="1703" y="331.5" width="120" height="32" as="geometry" />
        </mxCell>
        <mxCell id="fZ5gz3fBRrznooZwM4yi-18" value="" style="edgeStyle=orthogonalEdgeStyle;rounded=0;orthogonalLoop=1;jettySize=auto;html=1;exitX=0.5;exitY=1;exitDx=0;exitDy=0;entryX=1;entryY=0.5;entryDx=0;entryDy=0;" edge="1" parent="1" source="fZ5gz3fBRrznooZwM4yi-11" target="fZ5gz3fBRrznooZwM4yi-16">
          <mxGeometry relative="1" as="geometry">
            <mxPoint x="2215" y="357.5" as="sourcePoint" />
            <mxPoint x="2160" y="357.5" as="targetPoint" />
            <Array as="points">
              <mxPoint x="2255" y="382.5" />
              <mxPoint x="1850" y="382.5" />
              <mxPoint x="1850" y="347.5" />
            </Array>
          </mxGeometry>
        </mxCell>
        <mxCell id="fZ5gz3fBRrznooZwM4yi-22" value="" style="edgeStyle=orthogonalEdgeStyle;rounded=0;orthogonalLoop=1;jettySize=auto;html=1;" edge="1" parent="1" source="fZ5gz3fBRrznooZwM4yi-19" target="fZ5gz3fBRrznooZwM4yi-21">
          <mxGeometry relative="1" as="geometry" />
        </mxCell>
        <mxCell id="fZ5gz3fBRrznooZwM4yi-19" value="Image Patch" style="shape=parallelogram;perimeter=parallelogramPerimeter;whiteSpace=wrap;html=1;fixedSize=1;" vertex="1" parent="1">
          <mxGeometry x="1550" y="332" width="120" height="30" as="geometry" />
        </mxCell>
        <mxCell id="fZ5gz3fBRrznooZwM4yi-24" value="" style="edgeStyle=orthogonalEdgeStyle;rounded=0;orthogonalLoop=1;jettySize=auto;html=1;" edge="1" parent="1" source="fZ5gz3fBRrznooZwM4yi-21" target="fZ5gz3fBRrznooZwM4yi-23">
          <mxGeometry relative="1" as="geometry" />
        </mxCell>
        <mxCell id="fZ5gz3fBRrznooZwM4yi-21" value="Text Recognizer" style="whiteSpace=wrap;html=1;rounded=0;" vertex="1" parent="1">
          <mxGeometry x="1390" y="331" width="120" height="32" as="geometry" />
        </mxCell>
        <mxCell id="fZ5gz3fBRrznooZwM4yi-26" value="" style="edgeStyle=orthogonalEdgeStyle;rounded=0;orthogonalLoop=1;jettySize=auto;html=1;" edge="1" parent="1" source="fZ5gz3fBRrznooZwM4yi-23" target="fZ5gz3fBRrznooZwM4yi-25">
          <mxGeometry relative="1" as="geometry" />
        </mxCell>
        <mxCell id="fZ5gz3fBRrznooZwM4yi-23" value="Text" style="shape=parallelogram;perimeter=parallelogramPerimeter;whiteSpace=wrap;html=1;fixedSize=1;" vertex="1" parent="1">
          <mxGeometry x="1230" y="332" width="120" height="30" as="geometry" />
        </mxCell>
        <mxCell id="fZ5gz3fBRrznooZwM4yi-30" value="" style="edgeStyle=orthogonalEdgeStyle;rounded=0;orthogonalLoop=1;jettySize=auto;html=1;fontSize=22;" edge="1" parent="1" source="fZ5gz3fBRrznooZwM4yi-25" target="fZ5gz3fBRrznooZwM4yi-28">
          <mxGeometry relative="1" as="geometry" />
        </mxCell>
        <mxCell id="fZ5gz3fBRrznooZwM4yi-25" value="&lt;b style=&quot;font-size: 22px;&quot;&gt;+&lt;/b&gt;" style="ellipse;whiteSpace=wrap;html=1;aspect=fixed;" vertex="1" parent="1">
          <mxGeometry x="1275" y="412.5" width="30" height="30" as="geometry" />
        </mxCell>
        <mxCell id="fZ5gz3fBRrznooZwM4yi-27" value="" style="edgeStyle=orthogonalEdgeStyle;rounded=0;orthogonalLoop=1;jettySize=auto;html=1;exitX=0.422;exitY=0.972;exitDx=0;exitDy=0;exitPerimeter=0;entryX=1;entryY=0.5;entryDx=0;entryDy=0;" edge="1" parent="1" source="fZ5gz3fBRrznooZwM4yi-19" target="fZ5gz3fBRrznooZwM4yi-25">
          <mxGeometry relative="1" as="geometry">
            <mxPoint x="1300" y="372.5" as="sourcePoint" />
            <mxPoint x="1300" y="422.5" as="targetPoint" />
          </mxGeometry>
        </mxCell>
        <mxCell id="fZ5gz3fBRrznooZwM4yi-28" value="Words DC" style="shape=parallelogram;perimeter=parallelogramPerimeter;whiteSpace=wrap;html=1;fixedSize=1;" vertex="1" parent="1">
          <mxGeometry x="1080" y="412.5" width="120" height="30" as="geometry" />
        </mxCell>
        <mxCell id="fZ5gz3fBRrznooZwM4yi-29" value="" style="edgeStyle=orthogonalEdgeStyle;rounded=0;orthogonalLoop=1;jettySize=auto;html=1;exitX=0.5;exitY=1;exitDx=0;exitDy=0;entryX=1;entryY=0.5;entryDx=0;entryDy=0;" edge="1" parent="1" source="fZ5gz3fBRrznooZwM4yi-14" target="fZ5gz3fBRrznooZwM4yi-25">
          <mxGeometry relative="1" as="geometry">
            <mxPoint x="1611" y="371.5" as="sourcePoint" />
            <mxPoint x="1315" y="437.5" as="targetPoint" />
            <Array as="points">
              <mxPoint x="1930" y="427.5" />
            </Array>
          </mxGeometry>
        </mxCell>
        <mxCell id="fZ5gz3fBRrznooZwM4yi-45" value="" style="edgeStyle=orthogonalEdgeStyle;rounded=0;orthogonalLoop=1;jettySize=auto;html=1;fontSize=22;" edge="1" parent="1" source="fZ5gz3fBRrznooZwM4yi-31" target="fZ5gz3fBRrznooZwM4yi-39">
          <mxGeometry relative="1" as="geometry" />
        </mxCell>
        <mxCell id="fZ5gz3fBRrznooZwM4yi-31" value="Key-Value Classification Block" style="whiteSpace=wrap;html=1;rounded=0;" vertex="1" parent="1">
          <mxGeometry x="520" y="730" width="120" height="30" as="geometry" />
        </mxCell>
        <mxCell id="fZ5gz3fBRrznooZwM4yi-34" value="" style="edgeStyle=orthogonalEdgeStyle;rounded=0;orthogonalLoop=1;jettySize=auto;html=1;fontSize=22;" edge="1" parent="1" source="fZ5gz3fBRrznooZwM4yi-32" target="fZ5gz3fBRrznooZwM4yi-31">
          <mxGeometry relative="1" as="geometry" />
        </mxCell>
        <mxCell id="fZ5gz3fBRrznooZwM4yi-32" value="WordGroup DC" style="shape=parallelogram;perimeter=parallelogramPerimeter;whiteSpace=wrap;html=1;fixedSize=1;rounded=0;" vertex="1" parent="1">
          <mxGeometry x="520" y="670" width="120" height="30" as="geometry" />
        </mxCell>
        <mxCell id="fZ5gz3fBRrznooZwM4yi-35" value="" style="edgeStyle=orthogonalEdgeStyle;rounded=0;orthogonalLoop=1;jettySize=auto;html=1;exitX=0.5;exitY=1;exitDx=0;exitDy=0;entryX=0;entryY=0.5;entryDx=0;entryDy=0;" edge="1" parent="1" source="eXNG1eiRY6DkNwFddk69-12" target="fZ5gz3fBRrznooZwM4yi-8">
          <mxGeometry relative="1" as="geometry">
            <mxPoint x="1435" y="44" as="sourcePoint" />
            <mxPoint x="1395" y="44" as="targetPoint" />
            <Array as="points">
              <mxPoint x="1140" y="191" />
            </Array>
          </mxGeometry>
        </mxCell>
        <mxCell id="fZ5gz3fBRrznooZwM4yi-37" value="Keys DC" style="shape=parallelogram;perimeter=parallelogramPerimeter;whiteSpace=wrap;html=1;fixedSize=1;rounded=0;" vertex="1" parent="1">
          <mxGeometry x="320" y="800" width="120" height="30" as="geometry" />
        </mxCell>
        <mxCell id="fZ5gz3fBRrznooZwM4yi-50" value="" style="edgeStyle=orthogonalEdgeStyle;rounded=0;orthogonalLoop=1;jettySize=auto;html=1;fontSize=22;" edge="1" parent="1" source="fZ5gz3fBRrznooZwM4yi-38" target="fZ5gz3fBRrznooZwM4yi-49">
          <mxGeometry relative="1" as="geometry" />
        </mxCell>
        <mxCell id="fZ5gz3fBRrznooZwM4yi-38" value="Values DC" style="shape=parallelogram;perimeter=parallelogramPerimeter;whiteSpace=wrap;html=1;fixedSize=1;rounded=0;" vertex="1" parent="1">
          <mxGeometry x="460" y="800" width="120" height="30" as="geometry" />
        </mxCell>
        <mxCell id="fZ5gz3fBRrznooZwM4yi-60" value="" style="edgeStyle=orthogonalEdgeStyle;rounded=0;orthogonalLoop=1;jettySize=auto;html=1;fontSize=22;entryX=0.5;entryY=0;entryDx=0;entryDy=0;" edge="1" parent="1" source="fZ5gz3fBRrznooZwM4yi-39" target="fZ5gz3fBRrznooZwM4yi-58">
          <mxGeometry relative="1" as="geometry">
            <Array as="points">
              <mxPoint x="660" y="1010" />
              <mxPoint x="580" y="1010" />
            </Array>
          </mxGeometry>
        </mxCell>
        <mxCell id="fZ5gz3fBRrznooZwM4yi-39" value="Titles DC" style="shape=parallelogram;perimeter=parallelogramPerimeter;whiteSpace=wrap;html=1;fixedSize=1;rounded=0;" vertex="1" parent="1">
          <mxGeometry x="600" y="800" width="120" height="30" as="geometry" />
        </mxCell>
        <mxCell id="fZ5gz3fBRrznooZwM4yi-40" value="Others DC" style="shape=parallelogram;perimeter=parallelogramPerimeter;whiteSpace=wrap;html=1;fixedSize=1;rounded=0;" vertex="1" parent="1">
          <mxGeometry x="740" y="800" width="120" height="30" as="geometry" />
        </mxCell>
        <mxCell id="fZ5gz3fBRrznooZwM4yi-46" value="" style="edgeStyle=orthogonalEdgeStyle;rounded=0;orthogonalLoop=1;jettySize=auto;html=1;fontSize=22;exitX=0.5;exitY=1;exitDx=0;exitDy=0;" edge="1" parent="1" source="fZ5gz3fBRrznooZwM4yi-31" target="fZ5gz3fBRrznooZwM4yi-38">
          <mxGeometry relative="1" as="geometry">
            <mxPoint x="590" y="770" as="sourcePoint" />
            <mxPoint x="670" y="810" as="targetPoint" />
          </mxGeometry>
        </mxCell>
        <mxCell id="fZ5gz3fBRrznooZwM4yi-47" value="" style="edgeStyle=orthogonalEdgeStyle;rounded=0;orthogonalLoop=1;jettySize=auto;html=1;fontSize=22;exitX=0.5;exitY=1;exitDx=0;exitDy=0;entryX=0.5;entryY=0;entryDx=0;entryDy=0;" edge="1" parent="1" source="fZ5gz3fBRrznooZwM4yi-31" target="fZ5gz3fBRrznooZwM4yi-37">
          <mxGeometry relative="1" as="geometry">
            <mxPoint x="590" y="770" as="sourcePoint" />
            <mxPoint x="530" y="810" as="targetPoint" />
          </mxGeometry>
        </mxCell>
        <mxCell id="fZ5gz3fBRrznooZwM4yi-48" value="" style="edgeStyle=orthogonalEdgeStyle;rounded=0;orthogonalLoop=1;jettySize=auto;html=1;fontSize=22;exitX=0.5;exitY=1;exitDx=0;exitDy=0;entryX=0.5;entryY=0;entryDx=0;entryDy=0;" edge="1" parent="1" source="fZ5gz3fBRrznooZwM4yi-31" target="fZ5gz3fBRrznooZwM4yi-40">
          <mxGeometry relative="1" as="geometry">
            <mxPoint x="590" y="770" as="sourcePoint" />
            <mxPoint x="390" y="810" as="targetPoint" />
          </mxGeometry>
        </mxCell>
        <mxCell id="fZ5gz3fBRrznooZwM4yi-53" value="" style="edgeStyle=orthogonalEdgeStyle;rounded=0;orthogonalLoop=1;jettySize=auto;html=1;fontSize=22;" edge="1" parent="1" source="fZ5gz3fBRrznooZwM4yi-49" target="fZ5gz3fBRrznooZwM4yi-52">
          <mxGeometry relative="1" as="geometry" />
        </mxCell>
        <mxCell id="fZ5gz3fBRrznooZwM4yi-49" value="Reranking Block" style="whiteSpace=wrap;html=1;rounded=0;" vertex="1" parent="1">
          <mxGeometry x="520" y="890" width="120" height="30" as="geometry" />
        </mxCell>
        <mxCell id="fZ5gz3fBRrznooZwM4yi-51" value="" style="edgeStyle=orthogonalEdgeStyle;rounded=0;orthogonalLoop=1;jettySize=auto;html=1;fontSize=22;exitX=0.5;exitY=1;exitDx=0;exitDy=0;entryX=0.5;entryY=0;entryDx=0;entryDy=0;" edge="1" parent="1" source="fZ5gz3fBRrznooZwM4yi-37" target="fZ5gz3fBRrznooZwM4yi-49">
          <mxGeometry relative="1" as="geometry">
            <mxPoint x="530" y="840" as="sourcePoint" />
            <mxPoint x="590" y="900" as="targetPoint" />
          </mxGeometry>
        </mxCell>
        <mxCell id="fZ5gz3fBRrznooZwM4yi-59" value="" style="edgeStyle=orthogonalEdgeStyle;rounded=0;orthogonalLoop=1;jettySize=auto;html=1;fontSize=22;" edge="1" parent="1" source="fZ5gz3fBRrznooZwM4yi-52" target="fZ5gz3fBRrznooZwM4yi-58">
          <mxGeometry relative="1" as="geometry" />
        </mxCell>
        <mxCell id="fZ5gz3fBRrznooZwM4yi-52" value="KV Pairs DC" style="shape=parallelogram;perimeter=parallelogramPerimeter;whiteSpace=wrap;html=1;fixedSize=1;rounded=0;" vertex="1" parent="1">
          <mxGeometry x="520" y="960" width="120" height="30" as="geometry" />
        </mxCell>
        <mxCell id="fZ5gz3fBRrznooZwM4yi-57" value="" style="edgeStyle=orthogonalEdgeStyle;rounded=0;orthogonalLoop=1;jettySize=auto;html=1;fontSize=22;" edge="1" parent="1" source="fZ5gz3fBRrznooZwM4yi-54" target="fZ5gz3fBRrznooZwM4yi-55">
          <mxGeometry relative="1" as="geometry" />
        </mxCell>
        <mxCell id="fZ5gz3fBRrznooZwM4yi-54" value="Input file" style="shape=parallelogram;perimeter=parallelogramPerimeter;whiteSpace=wrap;html=1;fixedSize=1;" vertex="1" parent="1">
          <mxGeometry x="520" y="295" width="120" height="30" as="geometry" />
        </mxCell>
        <mxCell id="fZ5gz3fBRrznooZwM4yi-56" value="" style="edgeStyle=orthogonalEdgeStyle;rounded=0;orthogonalLoop=1;jettySize=auto;html=1;fontSize=22;entryX=0.5;entryY=0;entryDx=0;entryDy=0;" edge="1" parent="1" source="fZ5gz3fBRrznooZwM4yi-55" target="eXNG1eiRY6DkNwFddk69-14">
          <mxGeometry relative="1" as="geometry">
            <mxPoint x="580" y="410" as="targetPoint" />
          </mxGeometry>
        </mxCell>
        <mxCell id="fZ5gz3fBRrznooZwM4yi-55" value="Preprocessing Block" style="whiteSpace=wrap;html=1;rounded=0;" vertex="1" parent="1">
          <mxGeometry x="520" y="362.5" width="120" height="35" as="geometry" />
        </mxCell>
        <mxCell id="fZ5gz3fBRrznooZwM4yi-62" value="" style="edgeStyle=orthogonalEdgeStyle;rounded=0;orthogonalLoop=1;jettySize=auto;html=1;fontSize=22;" edge="1" parent="1" source="fZ5gz3fBRrznooZwM4yi-58" target="fZ5gz3fBRrznooZwM4yi-61">
          <mxGeometry relative="1" as="geometry" />
        </mxCell>
        <mxCell id="fZ5gz3fBRrznooZwM4yi-58" value="Postprocessing Block" style="whiteSpace=wrap;html=1;rounded=0;" vertex="1" parent="1">
          <mxGeometry x="520" y="1030" width="120" height="35" as="geometry" />
        </mxCell>
        <mxCell id="fZ5gz3fBRrznooZwM4yi-61" value="Output" style="shape=parallelogram;perimeter=parallelogramPerimeter;whiteSpace=wrap;html=1;fixedSize=1;" vertex="1" parent="1">
          <mxGeometry x="520" y="1110" width="120" height="30" as="geometry" />
        </mxCell>
        <mxCell id="fZ5gz3fBRrznooZwM4yi-72" value="" style="edgeStyle=orthogonalEdgeStyle;rounded=0;orthogonalLoop=1;jettySize=auto;html=1;fontSize=22;" edge="1" parent="1" source="fZ5gz3fBRrznooZwM4yi-63" target="fZ5gz3fBRrznooZwM4yi-65">
          <mxGeometry relative="1" as="geometry" />
        </mxCell>
        <mxCell id="fZ5gz3fBRrznooZwM4yi-63" value="Words DC" style="shape=parallelogram;perimeter=parallelogramPerimeter;whiteSpace=wrap;html=1;fixedSize=1;" vertex="1" parent="1">
          <mxGeometry x="1080" y="584" width="120" height="30" as="geometry" />
        </mxCell>
        <mxCell id="fZ5gz3fBRrznooZwM4yi-71" value="" style="edgeStyle=orthogonalEdgeStyle;rounded=0;orthogonalLoop=1;jettySize=auto;html=1;fontSize=22;" edge="1" parent="1" source="fZ5gz3fBRrznooZwM4yi-65" target="fZ5gz3fBRrznooZwM4yi-66">
          <mxGeometry relative="1" as="geometry" />
        </mxCell>
        <mxCell id="fZ5gz3fBRrznooZwM4yi-65" value="Tokenizer" style="whiteSpace=wrap;html=1;rounded=0;" vertex="1" parent="1">
          <mxGeometry x="1235" y="584" width="120" height="30" as="geometry" />
        </mxCell>
        <mxCell id="fZ5gz3fBRrznooZwM4yi-76" value="" style="edgeStyle=orthogonalEdgeStyle;rounded=0;orthogonalLoop=1;jettySize=auto;html=1;fontSize=22;" edge="1" parent="1" source="fZ5gz3fBRrznooZwM4yi-66" target="fZ5gz3fBRrznooZwM4yi-75">
          <mxGeometry relative="1" as="geometry" />
        </mxCell>
        <mxCell id="fZ5gz3fBRrznooZwM4yi-66" value="Image tokens" style="shape=parallelogram;perimeter=parallelogramPerimeter;whiteSpace=wrap;html=1;fixedSize=1;rounded=0;" vertex="1" parent="1">
          <mxGeometry x="1390" y="585.5" width="120" height="27.5" as="geometry" />
        </mxCell>
        <mxCell id="fZ5gz3fBRrznooZwM4yi-67" value="Text tokens" style="shape=parallelogram;perimeter=parallelogramPerimeter;whiteSpace=wrap;html=1;fixedSize=1;rounded=0;" vertex="1" parent="1">
          <mxGeometry x="1390" y="642.5" width="120" height="27.5" as="geometry" />
        </mxCell>
        <mxCell id="fZ5gz3fBRrznooZwM4yi-68" value="Location tokens" style="shape=parallelogram;perimeter=parallelogramPerimeter;whiteSpace=wrap;html=1;fixedSize=1;rounded=0;" vertex="1" parent="1">
          <mxGeometry x="1390" y="700" width="120" height="27.5" as="geometry" />
        </mxCell>
        <mxCell id="fZ5gz3fBRrznooZwM4yi-73" value="" style="edgeStyle=orthogonalEdgeStyle;rounded=0;orthogonalLoop=1;jettySize=auto;html=1;fontSize=22;exitX=1;exitY=0.5;exitDx=0;exitDy=0;entryX=0;entryY=0.5;entryDx=0;entryDy=0;" edge="1" parent="1" source="fZ5gz3fBRrznooZwM4yi-65" target="fZ5gz3fBRrznooZwM4yi-67">
          <mxGeometry relative="1" as="geometry">
            <mxPoint x="1365" y="609" as="sourcePoint" />
            <mxPoint x="1410" y="609" as="targetPoint" />
            <Array as="points">
              <mxPoint x="1370" y="599" />
              <mxPoint x="1370" y="656" />
            </Array>
          </mxGeometry>
        </mxCell>
        <mxCell id="fZ5gz3fBRrznooZwM4yi-74" value="" style="edgeStyle=orthogonalEdgeStyle;rounded=0;orthogonalLoop=1;jettySize=auto;html=1;fontSize=22;exitX=1;exitY=0.5;exitDx=0;exitDy=0;entryX=0;entryY=0.5;entryDx=0;entryDy=0;" edge="1" parent="1" source="fZ5gz3fBRrznooZwM4yi-65" target="fZ5gz3fBRrznooZwM4yi-68">
          <mxGeometry relative="1" as="geometry">
            <mxPoint x="1365" y="609" as="sourcePoint" />
            <mxPoint x="1410" y="666" as="targetPoint" />
            <Array as="points">
              <mxPoint x="1370" y="599" />
              <mxPoint x="1370" y="714" />
            </Array>
          </mxGeometry>
        </mxCell>
        <mxCell id="fZ5gz3fBRrznooZwM4yi-78" value="" style="edgeStyle=orthogonalEdgeStyle;rounded=0;orthogonalLoop=1;jettySize=auto;html=1;fontSize=22;" edge="1" parent="1" source="fZ5gz3fBRrznooZwM4yi-75" target="fZ5gz3fBRrznooZwM4yi-77">
          <mxGeometry relative="1" as="geometry" />
        </mxCell>
        <mxCell id="fZ5gz3fBRrznooZwM4yi-75" value="Embedding Module" style="whiteSpace=wrap;html=1;rounded=0;" vertex="1" parent="1">
          <mxGeometry x="1550" y="586.25" width="120" height="26" as="geometry" />
        </mxCell>
        <mxCell id="fZ5gz3fBRrznooZwM4yi-77" value="Embedding &lt;br&gt;Vector" style="shape=parallelogram;perimeter=parallelogramPerimeter;whiteSpace=wrap;html=1;fixedSize=1;rounded=0;" vertex="1" parent="1">
          <mxGeometry x="1703" y="586.13" width="120" height="25.75" as="geometry" />
        </mxCell>
        <mxCell id="fZ5gz3fBRrznooZwM4yi-79" value="" style="edgeStyle=orthogonalEdgeStyle;rounded=0;orthogonalLoop=1;jettySize=auto;html=1;fontSize=22;" edge="1" parent="1" source="fZ5gz3fBRrznooZwM4yi-80" target="fZ5gz3fBRrznooZwM4yi-82">
          <mxGeometry relative="1" as="geometry" />
        </mxCell>
        <mxCell id="fZ5gz3fBRrznooZwM4yi-80" value="Words DC" style="shape=parallelogram;perimeter=parallelogramPerimeter;whiteSpace=wrap;html=1;fixedSize=1;" vertex="1" parent="1">
          <mxGeometry x="1078.5" y="790" width="120" height="30" as="geometry" />
        </mxCell>
        <mxCell id="fZ5gz3fBRrznooZwM4yi-81" value="" style="edgeStyle=orthogonalEdgeStyle;rounded=0;orthogonalLoop=1;jettySize=auto;html=1;fontSize=22;" edge="1" parent="1" source="fZ5gz3fBRrznooZwM4yi-82" target="fZ5gz3fBRrznooZwM4yi-84">
          <mxGeometry relative="1" as="geometry" />
        </mxCell>
        <mxCell id="fZ5gz3fBRrznooZwM4yi-82" value="Tokenizer" style="whiteSpace=wrap;html=1;rounded=0;" vertex="1" parent="1">
          <mxGeometry x="1233.5" y="790" width="120" height="30" as="geometry" />
        </mxCell>
        <mxCell id="fZ5gz3fBRrznooZwM4yi-83" value="" style="edgeStyle=orthogonalEdgeStyle;rounded=0;orthogonalLoop=1;jettySize=auto;html=1;fontSize=22;" edge="1" parent="1" source="fZ5gz3fBRrznooZwM4yi-84" target="fZ5gz3fBRrznooZwM4yi-90">
          <mxGeometry relative="1" as="geometry" />
        </mxCell>
        <mxCell id="fZ5gz3fBRrznooZwM4yi-84" value="Image tokens" style="shape=parallelogram;perimeter=parallelogramPerimeter;whiteSpace=wrap;html=1;fixedSize=1;rounded=0;" vertex="1" parent="1">
          <mxGeometry x="1388.5" y="791.5" width="120" height="27.5" as="geometry" />
        </mxCell>
        <mxCell id="fZ5gz3fBRrznooZwM4yi-85" value="Text tokens" style="shape=parallelogram;perimeter=parallelogramPerimeter;whiteSpace=wrap;html=1;fixedSize=1;rounded=0;" vertex="1" parent="1">
          <mxGeometry x="1388.5" y="848.5" width="120" height="27.5" as="geometry" />
        </mxCell>
        <mxCell id="fZ5gz3fBRrznooZwM4yi-86" value="Location tokens" style="shape=parallelogram;perimeter=parallelogramPerimeter;whiteSpace=wrap;html=1;fixedSize=1;rounded=0;" vertex="1" parent="1">
          <mxGeometry x="1388.5" y="906" width="120" height="27.5" as="geometry" />
        </mxCell>
        <mxCell id="fZ5gz3fBRrznooZwM4yi-87" value="" style="edgeStyle=orthogonalEdgeStyle;rounded=0;orthogonalLoop=1;jettySize=auto;html=1;fontSize=22;exitX=1;exitY=0.5;exitDx=0;exitDy=0;entryX=0;entryY=0.5;entryDx=0;entryDy=0;" edge="1" parent="1" source="fZ5gz3fBRrznooZwM4yi-82" target="fZ5gz3fBRrznooZwM4yi-85">
          <mxGeometry relative="1" as="geometry">
            <mxPoint x="1363.5" y="815" as="sourcePoint" />
            <mxPoint x="1408.5" y="815" as="targetPoint" />
            <Array as="points">
              <mxPoint x="1368.5" y="805" />
              <mxPoint x="1368.5" y="862" />
            </Array>
          </mxGeometry>
        </mxCell>
        <mxCell id="fZ5gz3fBRrznooZwM4yi-88" value="" style="edgeStyle=orthogonalEdgeStyle;rounded=0;orthogonalLoop=1;jettySize=auto;html=1;fontSize=22;exitX=1;exitY=0.5;exitDx=0;exitDy=0;entryX=0;entryY=0.5;entryDx=0;entryDy=0;" edge="1" parent="1" source="fZ5gz3fBRrznooZwM4yi-82" target="fZ5gz3fBRrznooZwM4yi-86">
          <mxGeometry relative="1" as="geometry">
            <mxPoint x="1363.5" y="815" as="sourcePoint" />
            <mxPoint x="1408.5" y="872" as="targetPoint" />
            <Array as="points">
              <mxPoint x="1368.5" y="805" />
              <mxPoint x="1368.5" y="920" />
            </Array>
          </mxGeometry>
        </mxCell>
        <mxCell id="fZ5gz3fBRrznooZwM4yi-89" value="" style="edgeStyle=orthogonalEdgeStyle;rounded=0;orthogonalLoop=1;jettySize=auto;html=1;fontSize=22;" edge="1" parent="1" source="fZ5gz3fBRrznooZwM4yi-90" target="fZ5gz3fBRrznooZwM4yi-91">
          <mxGeometry relative="1" as="geometry" />
        </mxCell>
        <mxCell id="fZ5gz3fBRrznooZwM4yi-90" value="Embedding Module" style="whiteSpace=wrap;html=1;rounded=0;" vertex="1" parent="1">
          <mxGeometry x="1548.5" y="792.25" width="120" height="26" as="geometry" />
        </mxCell>
        <mxCell id="fZ5gz3fBRrznooZwM4yi-91" value="Embedding &lt;br&gt;Vector" style="shape=parallelogram;perimeter=parallelogramPerimeter;whiteSpace=wrap;html=1;fixedSize=1;rounded=0;" vertex="1" parent="1">
          <mxGeometry x="1701.5" y="792.13" width="120" height="25.75" as="geometry" />
        </mxCell>
        <mxCell id="fZ5gz3fBRrznooZwM4yi-96" value="" style="edgeStyle=orthogonalEdgeStyle;rounded=0;orthogonalLoop=1;jettySize=auto;html=1;fontSize=22;" edge="1" parent="1" source="fZ5gz3fBRrznooZwM4yi-92" target="fZ5gz3fBRrznooZwM4yi-95">
          <mxGeometry relative="1" as="geometry" />
        </mxCell>
        <mxCell id="fZ5gz3fBRrznooZwM4yi-92" value="&lt;b style=&quot;font-size: 22px;&quot;&gt;+&lt;/b&gt;" style="ellipse;whiteSpace=wrap;html=1;aspect=fixed;" vertex="1" parent="1">
          <mxGeometry x="1915" y="680" width="30" height="30" as="geometry" />
        </mxCell>
        <mxCell id="fZ5gz3fBRrznooZwM4yi-93" value="" style="edgeStyle=orthogonalEdgeStyle;rounded=0;orthogonalLoop=1;jettySize=auto;html=1;fontSize=22;exitX=1;exitY=0.5;exitDx=0;exitDy=0;entryX=0;entryY=0.5;entryDx=0;entryDy=0;" edge="1" parent="1" source="fZ5gz3fBRrznooZwM4yi-77" target="fZ5gz3fBRrznooZwM4yi-92">
          <mxGeometry relative="1" as="geometry">
            <mxPoint x="1679" y="815" as="sourcePoint" />
            <mxPoint x="1721" y="815" as="targetPoint" />
          </mxGeometry>
        </mxCell>
        <mxCell id="fZ5gz3fBRrznooZwM4yi-94" value="" style="edgeStyle=orthogonalEdgeStyle;rounded=0;orthogonalLoop=1;jettySize=auto;html=1;fontSize=22;exitX=1;exitY=0.5;exitDx=0;exitDy=0;entryX=0.5;entryY=1;entryDx=0;entryDy=0;" edge="1" parent="1" source="fZ5gz3fBRrznooZwM4yi-91" target="fZ5gz3fBRrznooZwM4yi-92">
          <mxGeometry relative="1" as="geometry">
            <mxPoint x="1679" y="815" as="sourcePoint" />
            <mxPoint x="1721" y="815" as="targetPoint" />
            <Array as="points">
              <mxPoint x="1930" y="805" />
            </Array>
          </mxGeometry>
        </mxCell>
        <mxCell id="fZ5gz3fBRrznooZwM4yi-98" value="" style="edgeStyle=orthogonalEdgeStyle;rounded=0;orthogonalLoop=1;jettySize=auto;html=1;fontSize=22;" edge="1" parent="1" source="fZ5gz3fBRrznooZwM4yi-95" target="fZ5gz3fBRrznooZwM4yi-97">
          <mxGeometry relative="1" as="geometry" />
        </mxCell>
        <mxCell id="fZ5gz3fBRrznooZwM4yi-95" value="Embedding &lt;br&gt;Vector" style="shape=parallelogram;perimeter=parallelogramPerimeter;whiteSpace=wrap;html=1;fixedSize=1;rounded=0;" vertex="1" parent="1">
          <mxGeometry x="1990" y="682.12" width="120" height="25.75" as="geometry" />
        </mxCell>
        <mxCell id="fZ5gz3fBRrznooZwM4yi-114" value="" style="edgeStyle=orthogonalEdgeStyle;rounded=0;orthogonalLoop=1;jettySize=auto;html=1;fontSize=22;" edge="1" parent="1" source="fZ5gz3fBRrznooZwM4yi-97" target="fZ5gz3fBRrznooZwM4yi-112">
          <mxGeometry relative="1" as="geometry" />
        </mxCell>
        <mxCell id="fZ5gz3fBRrznooZwM4yi-97" value="Encoder Module" style="whiteSpace=wrap;html=1;rounded=0;" vertex="1" parent="1">
          <mxGeometry x="2160" y="679.87" width="120" height="30" as="geometry" />
        </mxCell>
        <mxCell id="fZ5gz3fBRrznooZwM4yi-115" value="" style="edgeStyle=orthogonalEdgeStyle;rounded=0;orthogonalLoop=1;jettySize=auto;html=1;fontSize=22;" edge="1" parent="1" source="fZ5gz3fBRrznooZwM4yi-112" target="fZ5gz3fBRrznooZwM4yi-113">
          <mxGeometry relative="1" as="geometry" />
        </mxCell>
        <mxCell id="fZ5gz3fBRrznooZwM4yi-112" value="Embedding &lt;br&gt;Vector" style="shape=parallelogram;perimeter=parallelogramPerimeter;whiteSpace=wrap;html=1;fixedSize=1;rounded=0;" vertex="1" parent="1">
          <mxGeometry x="2330" y="679.87" width="120" height="30" as="geometry" />
        </mxCell>
        <mxCell id="fZ5gz3fBRrznooZwM4yi-117" value="" style="edgeStyle=orthogonalEdgeStyle;rounded=0;orthogonalLoop=1;jettySize=auto;html=1;fontSize=22;" edge="1" parent="1" source="fZ5gz3fBRrznooZwM4yi-113" target="fZ5gz3fBRrznooZwM4yi-116">
          <mxGeometry relative="1" as="geometry" />
        </mxCell>
        <mxCell id="fZ5gz3fBRrznooZwM4yi-113" value="Classifier" style="whiteSpace=wrap;html=1;rounded=0;" vertex="1" parent="1">
          <mxGeometry x="2330" y="787.88" width="120" height="30" as="geometry" />
        </mxCell>
        <mxCell id="fZ5gz3fBRrznooZwM4yi-116" value="Words DC Relation" style="shape=parallelogram;perimeter=parallelogramPerimeter;whiteSpace=wrap;html=1;fixedSize=1;rounded=0;" vertex="1" parent="1">
          <mxGeometry x="2321" y="860" width="140" height="30" as="geometry" />
        </mxCell>
        <mxCell id="fZ5gz3fBRrznooZwM4yi-119" value="" style="edgeStyle=orthogonalEdgeStyle;rounded=0;orthogonalLoop=1;jettySize=auto;html=1;fontSize=22;" edge="1" parent="1" source="fZ5gz3fBRrznooZwM4yi-118" target="eXNG1eiRY6DkNwFddk69-26">
          <mxGeometry relative="1" as="geometry" />
        </mxCell>
        <mxCell id="fZ5gz3fBRrznooZwM4yi-118" value="WordGroup DC" style="shape=parallelogram;perimeter=parallelogramPerimeter;whiteSpace=wrap;html=1;fixedSize=1;rounded=0;" vertex="1" parent="1">
          <mxGeometry x="2331.5" y="1460" width="120" height="30" as="geometry" />
        </mxCell>
        <mxCell id="fZ5gz3fBRrznooZwM4yi-120" value="Words DC" style="shape=parallelogram;perimeter=parallelogramPerimeter;whiteSpace=wrap;html=1;fixedSize=1;" vertex="1" parent="1">
          <mxGeometry x="1078.5" y="1035" width="120" height="30" as="geometry" />
        </mxCell>
        <mxCell id="fZ5gz3fBRrznooZwM4yi-121" value="Words DC" style="shape=parallelogram;perimeter=parallelogramPerimeter;whiteSpace=wrap;html=1;fixedSize=1;" vertex="1" parent="1">
          <mxGeometry x="1090" y="1050" width="120" height="30" as="geometry" />
        </mxCell>
        <mxCell id="fZ5gz3fBRrznooZwM4yi-122" value="Words DC" style="shape=parallelogram;perimeter=parallelogramPerimeter;whiteSpace=wrap;html=1;fixedSize=1;" vertex="1" parent="1">
          <mxGeometry x="1098.5" y="1070" width="120" height="30" as="geometry" />
        </mxCell>
        <mxCell id="fZ5gz3fBRrznooZwM4yi-123" value="Words DC" style="shape=parallelogram;perimeter=parallelogramPerimeter;whiteSpace=wrap;html=1;fixedSize=1;" vertex="1" parent="1">
          <mxGeometry x="1110" y="1090" width="120" height="30" as="geometry" />
        </mxCell>
        <mxCell id="fZ5gz3fBRrznooZwM4yi-125" value="Words DC Relation" style="shape=parallelogram;perimeter=parallelogramPerimeter;whiteSpace=wrap;html=1;fixedSize=1;rounded=0;" vertex="1" parent="1">
          <mxGeometry x="1078.5" y="1190" width="140" height="30" as="geometry" />
        </mxCell>
        <mxCell id="fZ5gz3fBRrznooZwM4yi-126" value="Words DC Relation" style="shape=parallelogram;perimeter=parallelogramPerimeter;whiteSpace=wrap;html=1;fixedSize=1;rounded=0;" vertex="1" parent="1">
          <mxGeometry x="1088.5" y="1200" width="140" height="30" as="geometry" />
        </mxCell>
        <mxCell id="fZ5gz3fBRrznooZwM4yi-127" value="Words DC Relation" style="shape=parallelogram;perimeter=parallelogramPerimeter;whiteSpace=wrap;html=1;fixedSize=1;rounded=0;" vertex="1" parent="1">
          <mxGeometry x="1098.5" y="1210" width="140" height="30" as="geometry" />
        </mxCell>
        <mxCell id="fZ5gz3fBRrznooZwM4yi-128" value="Words DC Relation" style="shape=parallelogram;perimeter=parallelogramPerimeter;whiteSpace=wrap;html=1;fixedSize=1;rounded=0;" vertex="1" parent="1">
          <mxGeometry x="1108.5" y="1220" width="140" height="30" as="geometry" />
        </mxCell>
        <mxCell id="fZ5gz3fBRrznooZwM4yi-134" value="" style="edgeStyle=orthogonalEdgeStyle;rounded=0;orthogonalLoop=1;jettySize=auto;html=1;fontSize=22;" edge="1" parent="1" source="fZ5gz3fBRrznooZwM4yi-129" target="fZ5gz3fBRrznooZwM4yi-133">
          <mxGeometry relative="1" as="geometry" />
        </mxCell>
        <mxCell id="fZ5gz3fBRrznooZwM4yi-129" value="Grouping Algorithm" style="whiteSpace=wrap;html=1;rounded=0;" vertex="1" parent="1">
          <mxGeometry x="1320" y="1130" width="120" height="30" as="geometry" />
        </mxCell>
        <mxCell id="fZ5gz3fBRrznooZwM4yi-130" value="" style="edgeStyle=orthogonalEdgeStyle;rounded=0;orthogonalLoop=1;jettySize=auto;html=1;fontSize=22;exitX=1;exitY=0.5;exitDx=0;exitDy=0;entryX=0;entryY=0.5;entryDx=0;entryDy=0;" edge="1" parent="1" source="fZ5gz3fBRrznooZwM4yi-123" target="fZ5gz3fBRrznooZwM4yi-129">
          <mxGeometry relative="1" as="geometry">
            <mxPoint x="1199" y="815" as="sourcePoint" />
            <mxPoint x="1244" y="815" as="targetPoint" />
          </mxGeometry>
        </mxCell>
        <mxCell id="fZ5gz3fBRrznooZwM4yi-131" value="" style="edgeStyle=orthogonalEdgeStyle;rounded=0;orthogonalLoop=1;jettySize=auto;html=1;fontSize=22;exitX=1;exitY=0.5;exitDx=0;exitDy=0;entryX=0.5;entryY=1;entryDx=0;entryDy=0;" edge="1" parent="1" source="fZ5gz3fBRrznooZwM4yi-128" target="fZ5gz3fBRrznooZwM4yi-129">
          <mxGeometry relative="1" as="geometry">
            <mxPoint x="1230" y="1115" as="sourcePoint" />
            <mxPoint x="1330" y="1155" as="targetPoint" />
            <Array as="points">
              <mxPoint x="1380" y="1235" />
            </Array>
          </mxGeometry>
        </mxCell>
        <mxCell id="fZ5gz3fBRrznooZwM4yi-133" value="WordGroup DC" style="shape=parallelogram;perimeter=parallelogramPerimeter;whiteSpace=wrap;html=1;fixedSize=1;rounded=0;" vertex="1" parent="1">
          <mxGeometry x="1500" y="1130" width="140" height="30" as="geometry" />
        </mxCell>
        <mxCell id="fZ5gz3fBRrznooZwM4yi-135" value="WordGroup DC" style="shape=parallelogram;perimeter=parallelogramPerimeter;whiteSpace=wrap;html=1;fixedSize=1;rounded=0;" vertex="1" parent="1">
          <mxGeometry x="1510" y="1140" width="140" height="30" as="geometry" />
        </mxCell>
        <mxCell id="fZ5gz3fBRrznooZwM4yi-136" value="WordGroup DC" style="shape=parallelogram;perimeter=parallelogramPerimeter;whiteSpace=wrap;html=1;fixedSize=1;rounded=0;" vertex="1" parent="1">
          <mxGeometry x="1520" y="1150" width="140" height="30" as="geometry" />
        </mxCell>
        <mxCell id="fZ5gz3fBRrznooZwM4yi-137" value="WordGroup DC" style="shape=parallelogram;perimeter=parallelogramPerimeter;whiteSpace=wrap;html=1;fixedSize=1;rounded=0;" vertex="1" parent="1">
          <mxGeometry x="1530" y="1160" width="140" height="30" as="geometry" />
        </mxCell>
        <mxCell id="fZ5gz3fBRrznooZwM4yi-138" value="WordGroup DC" style="shape=parallelogram;perimeter=parallelogramPerimeter;whiteSpace=wrap;html=1;fixedSize=1;rounded=0;" vertex="1" parent="1">
          <mxGeometry x="1540" y="1170" width="140" height="30" as="geometry" />
        </mxCell>
        <mxCell id="fZ5gz3fBRrznooZwM4yi-139" value="" style="edgeStyle=orthogonalEdgeStyle;rounded=0;orthogonalLoop=1;jettySize=auto;html=1;fontSize=22;" edge="1" parent="1" source="fZ5gz3fBRrznooZwM4yi-140" target="fZ5gz3fBRrznooZwM4yi-142">
          <mxGeometry relative="1" as="geometry" />
        </mxCell>
        <mxCell id="fZ5gz3fBRrznooZwM4yi-140" value="Keys DC" style="shape=parallelogram;perimeter=parallelogramPerimeter;whiteSpace=wrap;html=1;fixedSize=1;" vertex="1" parent="1">
          <mxGeometry x="1080" y="1870" width="120" height="30" as="geometry" />
        </mxCell>
        <mxCell id="fZ5gz3fBRrznooZwM4yi-141" value="" style="edgeStyle=orthogonalEdgeStyle;rounded=0;orthogonalLoop=1;jettySize=auto;html=1;fontSize=22;" edge="1" parent="1" source="fZ5gz3fBRrznooZwM4yi-142" target="fZ5gz3fBRrznooZwM4yi-144">
          <mxGeometry relative="1" as="geometry" />
        </mxCell>
        <mxCell id="fZ5gz3fBRrznooZwM4yi-142" value="Tokenizer" style="whiteSpace=wrap;html=1;rounded=0;" vertex="1" parent="1">
          <mxGeometry x="1235" y="1870" width="120" height="30" as="geometry" />
        </mxCell>
        <mxCell id="fZ5gz3fBRrznooZwM4yi-143" value="" style="edgeStyle=orthogonalEdgeStyle;rounded=0;orthogonalLoop=1;jettySize=auto;html=1;fontSize=22;" edge="1" parent="1" source="fZ5gz3fBRrznooZwM4yi-144" target="fZ5gz3fBRrznooZwM4yi-150">
          <mxGeometry relative="1" as="geometry" />
        </mxCell>
        <mxCell id="fZ5gz3fBRrznooZwM4yi-144" value="Image tokens" style="shape=parallelogram;perimeter=parallelogramPerimeter;whiteSpace=wrap;html=1;fixedSize=1;rounded=0;" vertex="1" parent="1">
          <mxGeometry x="1390" y="1871.5" width="120" height="27.5" as="geometry" />
        </mxCell>
        <mxCell id="fZ5gz3fBRrznooZwM4yi-145" value="Text tokens" style="shape=parallelogram;perimeter=parallelogramPerimeter;whiteSpace=wrap;html=1;fixedSize=1;rounded=0;" vertex="1" parent="1">
          <mxGeometry x="1390" y="1928.5" width="120" height="27.5" as="geometry" />
        </mxCell>
        <mxCell id="fZ5gz3fBRrznooZwM4yi-146" value="Location tokens" style="shape=parallelogram;perimeter=parallelogramPerimeter;whiteSpace=wrap;html=1;fixedSize=1;rounded=0;" vertex="1" parent="1">
          <mxGeometry x="1390" y="1986" width="120" height="27.5" as="geometry" />
        </mxCell>
        <mxCell id="fZ5gz3fBRrznooZwM4yi-147" value="" style="edgeStyle=orthogonalEdgeStyle;rounded=0;orthogonalLoop=1;jettySize=auto;html=1;fontSize=22;exitX=1;exitY=0.5;exitDx=0;exitDy=0;entryX=0;entryY=0.5;entryDx=0;entryDy=0;" edge="1" parent="1" source="fZ5gz3fBRrznooZwM4yi-142" target="fZ5gz3fBRrznooZwM4yi-145">
          <mxGeometry relative="1" as="geometry">
            <mxPoint x="1365" y="1895" as="sourcePoint" />
            <mxPoint x="1410" y="1895" as="targetPoint" />
            <Array as="points">
              <mxPoint x="1370" y="1885" />
              <mxPoint x="1370" y="1942" />
            </Array>
          </mxGeometry>
        </mxCell>
        <mxCell id="fZ5gz3fBRrznooZwM4yi-148" value="" style="edgeStyle=orthogonalEdgeStyle;rounded=0;orthogonalLoop=1;jettySize=auto;html=1;fontSize=22;exitX=1;exitY=0.5;exitDx=0;exitDy=0;entryX=0;entryY=0.5;entryDx=0;entryDy=0;" edge="1" parent="1" source="fZ5gz3fBRrznooZwM4yi-142" target="fZ5gz3fBRrznooZwM4yi-146">
          <mxGeometry relative="1" as="geometry">
            <mxPoint x="1365" y="1895" as="sourcePoint" />
            <mxPoint x="1410" y="1952" as="targetPoint" />
            <Array as="points">
              <mxPoint x="1370" y="1885" />
              <mxPoint x="1370" y="2000" />
            </Array>
          </mxGeometry>
        </mxCell>
        <mxCell id="fZ5gz3fBRrznooZwM4yi-149" value="" style="edgeStyle=orthogonalEdgeStyle;rounded=0;orthogonalLoop=1;jettySize=auto;html=1;fontSize=22;" edge="1" parent="1" source="fZ5gz3fBRrznooZwM4yi-150" target="fZ5gz3fBRrznooZwM4yi-151">
          <mxGeometry relative="1" as="geometry" />
        </mxCell>
        <mxCell id="fZ5gz3fBRrznooZwM4yi-150" value="Embedding Module" style="whiteSpace=wrap;html=1;rounded=0;" vertex="1" parent="1">
          <mxGeometry x="1550" y="1872.25" width="120" height="26" as="geometry" />
        </mxCell>
        <mxCell id="fZ5gz3fBRrznooZwM4yi-151" value="Embedding &lt;br&gt;Vector" style="shape=parallelogram;perimeter=parallelogramPerimeter;whiteSpace=wrap;html=1;fixedSize=1;rounded=0;" vertex="1" parent="1">
          <mxGeometry x="1703" y="1872.13" width="120" height="25.75" as="geometry" />
        </mxCell>
        <mxCell id="fZ5gz3fBRrznooZwM4yi-152" value="" style="edgeStyle=orthogonalEdgeStyle;rounded=0;orthogonalLoop=1;jettySize=auto;html=1;fontSize=22;" edge="1" parent="1" source="fZ5gz3fBRrznooZwM4yi-153" target="fZ5gz3fBRrznooZwM4yi-155">
          <mxGeometry relative="1" as="geometry" />
        </mxCell>
        <mxCell id="fZ5gz3fBRrznooZwM4yi-153" value="Values DC" style="shape=parallelogram;perimeter=parallelogramPerimeter;whiteSpace=wrap;html=1;fixedSize=1;" vertex="1" parent="1">
          <mxGeometry x="1078.5" y="2076" width="120" height="30" as="geometry" />
        </mxCell>
        <mxCell id="fZ5gz3fBRrznooZwM4yi-154" value="" style="edgeStyle=orthogonalEdgeStyle;rounded=0;orthogonalLoop=1;jettySize=auto;html=1;fontSize=22;" edge="1" parent="1" source="fZ5gz3fBRrznooZwM4yi-155" target="fZ5gz3fBRrznooZwM4yi-157">
          <mxGeometry relative="1" as="geometry" />
        </mxCell>
        <mxCell id="fZ5gz3fBRrznooZwM4yi-155" value="Tokenizer" style="whiteSpace=wrap;html=1;rounded=0;" vertex="1" parent="1">
          <mxGeometry x="1233.5" y="2076" width="120" height="30" as="geometry" />
        </mxCell>
        <mxCell id="fZ5gz3fBRrznooZwM4yi-156" value="" style="edgeStyle=orthogonalEdgeStyle;rounded=0;orthogonalLoop=1;jettySize=auto;html=1;fontSize=22;" edge="1" parent="1" source="fZ5gz3fBRrznooZwM4yi-157" target="fZ5gz3fBRrznooZwM4yi-163">
          <mxGeometry relative="1" as="geometry" />
        </mxCell>
        <mxCell id="fZ5gz3fBRrznooZwM4yi-157" value="Image tokens" style="shape=parallelogram;perimeter=parallelogramPerimeter;whiteSpace=wrap;html=1;fixedSize=1;rounded=0;" vertex="1" parent="1">
          <mxGeometry x="1388.5" y="2077.5" width="120" height="27.5" as="geometry" />
        </mxCell>
        <mxCell id="fZ5gz3fBRrznooZwM4yi-158" value="Text tokens" style="shape=parallelogram;perimeter=parallelogramPerimeter;whiteSpace=wrap;html=1;fixedSize=1;rounded=0;" vertex="1" parent="1">
          <mxGeometry x="1388.5" y="2134.5" width="120" height="27.5" as="geometry" />
        </mxCell>
        <mxCell id="fZ5gz3fBRrznooZwM4yi-159" value="Location tokens" style="shape=parallelogram;perimeter=parallelogramPerimeter;whiteSpace=wrap;html=1;fixedSize=1;rounded=0;" vertex="1" parent="1">
          <mxGeometry x="1388.5" y="2192" width="120" height="27.5" as="geometry" />
        </mxCell>
        <mxCell id="fZ5gz3fBRrznooZwM4yi-160" value="" style="edgeStyle=orthogonalEdgeStyle;rounded=0;orthogonalLoop=1;jettySize=auto;html=1;fontSize=22;exitX=1;exitY=0.5;exitDx=0;exitDy=0;entryX=0;entryY=0.5;entryDx=0;entryDy=0;" edge="1" parent="1" source="fZ5gz3fBRrznooZwM4yi-155" target="fZ5gz3fBRrznooZwM4yi-158">
          <mxGeometry relative="1" as="geometry">
            <mxPoint x="1363.5" y="2101" as="sourcePoint" />
            <mxPoint x="1408.5" y="2101" as="targetPoint" />
            <Array as="points">
              <mxPoint x="1368.5" y="2091" />
              <mxPoint x="1368.5" y="2148" />
            </Array>
          </mxGeometry>
        </mxCell>
        <mxCell id="fZ5gz3fBRrznooZwM4yi-161" value="" style="edgeStyle=orthogonalEdgeStyle;rounded=0;orthogonalLoop=1;jettySize=auto;html=1;fontSize=22;exitX=1;exitY=0.5;exitDx=0;exitDy=0;entryX=0;entryY=0.5;entryDx=0;entryDy=0;" edge="1" parent="1" source="fZ5gz3fBRrznooZwM4yi-155" target="fZ5gz3fBRrznooZwM4yi-159">
          <mxGeometry relative="1" as="geometry">
            <mxPoint x="1363.5" y="2101" as="sourcePoint" />
            <mxPoint x="1408.5" y="2158" as="targetPoint" />
            <Array as="points">
              <mxPoint x="1368.5" y="2091" />
              <mxPoint x="1368.5" y="2206" />
            </Array>
          </mxGeometry>
        </mxCell>
        <mxCell id="fZ5gz3fBRrznooZwM4yi-162" value="" style="edgeStyle=orthogonalEdgeStyle;rounded=0;orthogonalLoop=1;jettySize=auto;html=1;fontSize=22;" edge="1" parent="1" source="fZ5gz3fBRrznooZwM4yi-163" target="fZ5gz3fBRrznooZwM4yi-164">
          <mxGeometry relative="1" as="geometry" />
        </mxCell>
        <mxCell id="fZ5gz3fBRrznooZwM4yi-163" value="Embedding Module" style="whiteSpace=wrap;html=1;rounded=0;" vertex="1" parent="1">
          <mxGeometry x="1548.5" y="2078.25" width="120" height="26" as="geometry" />
        </mxCell>
        <mxCell id="fZ5gz3fBRrznooZwM4yi-164" value="Embedding &lt;br&gt;Vector" style="shape=parallelogram;perimeter=parallelogramPerimeter;whiteSpace=wrap;html=1;fixedSize=1;rounded=0;" vertex="1" parent="1">
          <mxGeometry x="1701.5" y="2078.13" width="120" height="25.75" as="geometry" />
        </mxCell>
        <mxCell id="fZ5gz3fBRrznooZwM4yi-165" value="" style="edgeStyle=orthogonalEdgeStyle;rounded=0;orthogonalLoop=1;jettySize=auto;html=1;fontSize=22;" edge="1" parent="1" source="fZ5gz3fBRrznooZwM4yi-166" target="fZ5gz3fBRrznooZwM4yi-170">
          <mxGeometry relative="1" as="geometry" />
        </mxCell>
        <mxCell id="fZ5gz3fBRrznooZwM4yi-166" value="&lt;b style=&quot;font-size: 22px;&quot;&gt;+&lt;/b&gt;" style="ellipse;whiteSpace=wrap;html=1;aspect=fixed;" vertex="1" parent="1">
          <mxGeometry x="1915" y="1966" width="30" height="30" as="geometry" />
        </mxCell>
        <mxCell id="fZ5gz3fBRrznooZwM4yi-167" value="" style="edgeStyle=orthogonalEdgeStyle;rounded=0;orthogonalLoop=1;jettySize=auto;html=1;fontSize=22;exitX=1;exitY=0.5;exitDx=0;exitDy=0;entryX=0;entryY=0.5;entryDx=0;entryDy=0;" edge="1" parent="1" source="fZ5gz3fBRrznooZwM4yi-151" target="fZ5gz3fBRrznooZwM4yi-166">
          <mxGeometry relative="1" as="geometry">
            <mxPoint x="1679" y="2101" as="sourcePoint" />
            <mxPoint x="1721" y="2101" as="targetPoint" />
          </mxGeometry>
        </mxCell>
        <mxCell id="fZ5gz3fBRrznooZwM4yi-168" value="" style="edgeStyle=orthogonalEdgeStyle;rounded=0;orthogonalLoop=1;jettySize=auto;html=1;fontSize=22;exitX=1;exitY=0.5;exitDx=0;exitDy=0;entryX=0.5;entryY=1;entryDx=0;entryDy=0;" edge="1" parent="1" source="fZ5gz3fBRrznooZwM4yi-164" target="fZ5gz3fBRrznooZwM4yi-166">
          <mxGeometry relative="1" as="geometry">
            <mxPoint x="1679" y="2101" as="sourcePoint" />
            <mxPoint x="1721" y="2101" as="targetPoint" />
            <Array as="points">
              <mxPoint x="1930" y="2091" />
            </Array>
          </mxGeometry>
        </mxCell>
        <mxCell id="fZ5gz3fBRrznooZwM4yi-169" value="" style="edgeStyle=orthogonalEdgeStyle;rounded=0;orthogonalLoop=1;jettySize=auto;html=1;fontSize=22;" edge="1" parent="1" source="fZ5gz3fBRrznooZwM4yi-170" target="fZ5gz3fBRrznooZwM4yi-172">
          <mxGeometry relative="1" as="geometry" />
        </mxCell>
        <mxCell id="fZ5gz3fBRrznooZwM4yi-170" value="Embedding &lt;br&gt;Vector" style="shape=parallelogram;perimeter=parallelogramPerimeter;whiteSpace=wrap;html=1;fixedSize=1;rounded=0;" vertex="1" parent="1">
          <mxGeometry x="1990" y="1968.12" width="120" height="25.75" as="geometry" />
        </mxCell>
        <mxCell id="fZ5gz3fBRrznooZwM4yi-171" value="" style="edgeStyle=orthogonalEdgeStyle;rounded=0;orthogonalLoop=1;jettySize=auto;html=1;fontSize=22;" edge="1" parent="1" source="fZ5gz3fBRrznooZwM4yi-172" target="fZ5gz3fBRrznooZwM4yi-174">
          <mxGeometry relative="1" as="geometry" />
        </mxCell>
        <mxCell id="fZ5gz3fBRrznooZwM4yi-172" value="Encoder Module" style="whiteSpace=wrap;html=1;rounded=0;" vertex="1" parent="1">
          <mxGeometry x="2160" y="1965.87" width="120" height="30" as="geometry" />
        </mxCell>
        <mxCell id="fZ5gz3fBRrznooZwM4yi-173" value="" style="edgeStyle=orthogonalEdgeStyle;rounded=0;orthogonalLoop=1;jettySize=auto;html=1;fontSize=22;" edge="1" parent="1" source="fZ5gz3fBRrznooZwM4yi-174" target="fZ5gz3fBRrznooZwM4yi-176">
          <mxGeometry relative="1" as="geometry" />
        </mxCell>
        <mxCell id="fZ5gz3fBRrznooZwM4yi-174" value="Embedding &lt;br&gt;Vector" style="shape=parallelogram;perimeter=parallelogramPerimeter;whiteSpace=wrap;html=1;fixedSize=1;rounded=0;" vertex="1" parent="1">
          <mxGeometry x="2330" y="1965.87" width="120" height="30" as="geometry" />
        </mxCell>
        <mxCell id="fZ5gz3fBRrznooZwM4yi-175" value="" style="edgeStyle=orthogonalEdgeStyle;rounded=0;orthogonalLoop=1;jettySize=auto;html=1;fontSize=22;" edge="1" parent="1" source="fZ5gz3fBRrznooZwM4yi-176" target="fZ5gz3fBRrznooZwM4yi-177">
          <mxGeometry relative="1" as="geometry" />
        </mxCell>
        <mxCell id="fZ5gz3fBRrznooZwM4yi-176" value="Classifier" style="whiteSpace=wrap;html=1;rounded=0;" vertex="1" parent="1">
          <mxGeometry x="2330" y="2073.88" width="120" height="30" as="geometry" />
        </mxCell>
        <mxCell id="fZ5gz3fBRrznooZwM4yi-180" value="" style="edgeStyle=orthogonalEdgeStyle;rounded=0;orthogonalLoop=1;jettySize=auto;html=1;fontSize=22;" edge="1" parent="1" source="fZ5gz3fBRrznooZwM4yi-177" target="fZ5gz3fBRrznooZwM4yi-179">
          <mxGeometry relative="1" as="geometry" />
        </mxCell>
        <mxCell id="fZ5gz3fBRrznooZwM4yi-177" value="KV Pair Scores" style="shape=parallelogram;perimeter=parallelogramPerimeter;whiteSpace=wrap;html=1;fixedSize=1;rounded=0;" vertex="1" parent="1">
          <mxGeometry x="2321" y="2146" width="140" height="30" as="geometry" />
        </mxCell>
        <mxCell id="fZ5gz3fBRrznooZwM4yi-182" value="" style="edgeStyle=orthogonalEdgeStyle;rounded=0;orthogonalLoop=1;jettySize=auto;html=1;fontSize=22;" edge="1" parent="1" source="fZ5gz3fBRrznooZwM4yi-179" target="fZ5gz3fBRrznooZwM4yi-181">
          <mxGeometry relative="1" as="geometry" />
        </mxCell>
        <mxCell id="fZ5gz3fBRrznooZwM4yi-179" value="Sorting and Thresholding" style="whiteSpace=wrap;html=1;rounded=0;" vertex="1" parent="1">
          <mxGeometry x="2331.5" y="2220" width="120" height="30" as="geometry" />
        </mxCell>
        <mxCell id="fZ5gz3fBRrznooZwM4yi-181" value="KV Pairs DC" style="shape=parallelogram;perimeter=parallelogramPerimeter;whiteSpace=wrap;html=1;fixedSize=1;rounded=0;" vertex="1" parent="1">
          <mxGeometry x="2321" y="2290" width="140" height="30" as="geometry" />
        </mxCell>
      </root>
    </mxGraphModel>
  </diagram>
</mxfile>
